<svg width="700" height="380" viewBox="0 0 700 380" xmlns="http://www.w3.org/2000/svg">
  <defs>
    <linearGradient id="bg" x1="0%" y1="0%" x2="100%" y2="100%">
      <stop offset="0%" stop-color="#07111f"/>
      <stop offset="100%" stop-color="#0f172a"/>
    </linearGradient>
    <linearGradient id="accent" x1="0%" y1="0%" x2="100%" y2="100%">
      <stop offset="0%" stop-color="#4ADE80"/>
      <stop offset="100%" stop-color="#06B6D4"/>
    </linearGradient>
    <filter id="soft" x="-20%" y="-20%" width="140%" height="140%">
      <feGaussianBlur stdDeviation="20"/>
    </filter>
  </defs>

  <rect width="700" height="380" rx="30" fill="url(#bg)"/>
  <circle cx="574" cy="82" r="86" fill="url(#accent)" opacity="0.28" filter="url(#soft)"/>
  <rect x="24" y="24" width="652" height="332" rx="26" fill="white" fill-opacity="0.08" stroke="white" stroke-opacity="0.16"/>

  <rect x="40" y="42" width="112" height="34" rx="17" fill="white" fill-opacity="0.12" stroke="white" stroke-opacity="0.18"/>
  <text x="58" y="64" fill="#E2E8F0" font-size="13" font-family="Inter, Arial, sans-serif" font-weight="700">ML + IoT</text>

  <circle cx="586" cy="92" r="58" fill="url(#accent)" opacity="0.18"/>
  <text x="558" y="109" fill="white" font-size="40" font-family="Apple Color Emoji, Segoe UI Emoji, Inter, Arial, sans-serif">🌦️</text>

  <text x="40" y="140" fill="white" font-size="38" font-family="Inter, Arial, sans-serif" font-weight="800">Weather AI</text>
  <text x="40" y="184" fill="#CBD5E1" font-size="20" font-family="Inter, Arial, sans-serif" font-weight="500">Forecasting system</text>

  <line x1="40" y1="210" x2="660" y2="210" stroke="white" stroke-opacity="0.12" stroke-width="1.5"/>

  <rect x="40" y="247" width="88" height="30" rx="15" fill="white" fill-opacity="0.09" stroke="white" stroke-opacity="0.18"/>
<text x="56" y="267" fill="white" font-size="13" font-family="Inter, Arial, sans-serif" font-weight="600">LSTM</text>
<rect x="138" y="247" width="88" height="30" rx="15" fill="white" fill-opacity="0.09" stroke="white" stroke-opacity="0.18"/>
<text x="154" y="267" fill="white" font-size="13" font-family="Inter, Arial, sans-serif" font-weight="600">AWS</text>
<rect x="236" y="247" width="124" height="30" rx="15" fill="white" fill-opacity="0.09" stroke="white" stroke-opacity="0.18"/>
<text x="252" y="267" fill="white" font-size="13" font-family="Inter, Arial, sans-serif" font-weight="600">Firebase</text>


  <text x="40" y="330" fill="#94A3B8" font-size="15" font-family="Inter, Arial, sans-serif" font-weight="500">Built as a deployed product, not just a prototype.</text>
</svg>